HIERARCHY
ROOT Hips
{
    OFFSET 0.000000 0.000000 0.000000
    CHANNELS 6 Xposition Yposition Zposition Zrotation Xrotation Yrotation
    JOINT Spine
    {
        OFFSET -0.000000 7.236184 0.000000
        CHANNELS 3 Zrotation Xrotation Yrotation
        JOINT Spine1
        {
            OFFSET -0.000000 20.420147 0.000000
            CHANNELS 3 Zrotation Xrotation Yrotation
            JOINT Neck
            {
                OFFSET -0.000000 20.336288 1.848754
                CHANNELS 3 Zrotation Xrotation Yrotation
                JOINT Head
                {
                    OFFSET -0.000000 12.354461 -1.764923
                    CHANNELS 3 Zrotation Xrotation Yrotation
                    End Site
                    {
                        OFFSET -0.000000 22.061537 0.000000
                    }
                }
            }
            JOINT LeftShoulder
            {
                OFFSET 3.573296 18.396038 -0.314103
                CHANNELS 3 Zrotation Xrotation Yrotation
                JOINT LeftArm
                {
                    OFFSET 10.880760 0.000000 0.000000
                    CHANNELS 3 Zrotation Xrotation Yrotation
                    JOINT LeftForeArm
                    {
                        OFFSET 27.185530 0.000000 0.000000
                        CHANNELS 3 Zrotation Xrotation Yrotation
                        JOINT LeftHand
                        {
                            OFFSET 27.825975 0.000000 0.000000
                            CHANNELS 3 Zrotation Xrotation Yrotation
                            End Site
                            {
                                OFFSET 13.236923 0.000000 0.000000
                            }
                        }
                    }
                }
            }
            JOINT RightShoulder
            {
                OFFSET -3.474926 18.396038 -0.314103
                CHANNELS 3 Zrotation Xrotation Yrotation
                JOINT RightArm
                {
                    OFFSET -10.880760 0.000000 0.000000
                    CHANNELS 3 Zrotation Xrotation Yrotation
                    JOINT RightForeArm
                    {
                        OFFSET -27.185530 0.000000 0.000000
                        CHANNELS 3 Zrotation Xrotation Yrotation
                        JOINT RightHand
                        {
                            OFFSET -27.825975 0.000000 0.000000
                            CHANNELS 3 Zrotation Xrotation Yrotation
                            End Site
                            {
                                OFFSET -13.236923 0.000000 0.000000
                            }
                        }
                    }
                }
            }
        }
    }
    JOINT LeftUpLeg
    {
        OFFSET 8.824615 0.000000 0.000000
        CHANNELS 3 Zrotation Xrotation Yrotation
        JOINT LeftLeg
        {
            OFFSET -0.000000 -35.111282 0.000000
            CHANNELS 3 Zrotation Xrotation Yrotation
            JOINT LeftFoot
            {
                OFFSET -0.000000 -42.324711 0.000000
                CHANNELS 3 Zrotation Xrotation Yrotation
                JOINT LeftToeBase
                {
                    OFFSET -0.000000 -5.735999 13.236923
                    CHANNELS 3 Zrotation Xrotation Yrotation
                    End Site
                    {
                        OFFSET -0.000000 0.000000 3.529846
                    }
                }
            }
        }
    }
    JOINT RightUpLeg
    {
        OFFSET -8.824615 0.000000 0.000000
        CHANNELS 3 Zrotation Xrotation Yrotation
        JOINT RightLeg
        {
            OFFSET -0.000000 -35.111282 0.000000
            CHANNELS 3 Zrotation Xrotation Yrotation
            JOINT RightFoot
            {
                OFFSET -0.000000 -42.324711 0.000000
                CHANNELS 3 Zrotation Xrotation Yrotation
                JOINT RightToeBase
                {
                    OFFSET -0.000000 -5.735999 13.236923
                    CHANNELS 3 Zrotation Xrotation Yrotation
                    End Site
                    {
                        OFFSET -0.000000 0.000000 3.529846
                    }
                }
            }
        }
    }
}
MOTION
Frames:    5
Frame Time:    0.008333
-3.562190    80.539566    105.779694    -0.573825    -13.899085    -175.834686    -1.106272    -5.407835    -1.621924    2.346503    9.704593    -1.768923    3.559672    -4.740030    -0.833429    -7.032298    -25.385534    -4.054575    13.174632    1.214025    -22.558308    -27.513725    9.622096    -52.065727    19.210310    -8.524254    -19.470621    37.545631    -4.676167    1.608467    -9.458503    4.279758    14.601517    18.820761    7.917233    54.035103    -24.013863    -8.125596    34.966568    -25.517403    -1.438045    4.293948    4.782686    -32.647278    -1.713001    0.891812    33.571712    6.209137    -10.439001    -10.734813    -15.939654    -0.144130    -2.035637    0.160359    -5.248372    -28.880581    0.996759    1.517377    31.401367    5.357409    0.220119    -11.776205    -14.473515    -1.717606    -1.456187    1.861462    
-3.432673    80.646347    105.658684    -0.785709    -13.974278    -175.940643    -0.963646    -5.485300    -1.609812    2.349365    9.484829    -1.758618    3.597537    -4.268665    -0.613878    -7.851195    -25.431746    -4.114839    13.241375    1.583967    -21.826113    -27.774565    10.841480    -50.352016    19.901197    -8.487671    -20.831875    38.654175    -4.388918    1.223643    -9.630713    4.379606    14.133698    18.275974    9.465954    52.296001    -25.187225    -8.480730    37.363369    -25.671688    -0.782381    4.137459    4.720603    -32.298634    -1.759652    0.785177    33.012836    6.387174    -10.457589    -10.525300    -15.941954    -0.180857    -2.075462    0.201238    -5.305857    -28.681158    1.098131    1.500022    31.042841    5.349198    0.138519    -11.688972    -14.484536    -1.718034    -1.418407    1.861826    
-3.307729    80.753471    105.534187    -0.998078    -14.063348    -176.045929    -0.814124    -5.559152    -1.593662    2.338731    9.250481    -1.743414    3.639178    -3.821648    -0.396918    -8.649707    -25.477451    -4.172523    13.302505    1.973842    -21.027485    -28.092760    12.112028    -48.625408    20.598267    -8.473713    -22.226030    39.783512    -4.101779    0.850725    -9.806799    4.490650    13.615762    17.868416    11.042594    50.506748    -26.376545    -8.956227    39.823421    -25.818340    -0.142968    3.923563    4.653249    -31.960741    -1.801471    0.685727    32.450577    6.560297    -10.474023    -10.311192    -15.951274    -0.219154    -2.120598    0.243870    -5.368975    -28.487171    1.204980    1.485364    30.674284    5.333955    0.059909    -11.602275    -14.498049    -1.718717    -1.381369    1.862469    
-3.185637    80.861069    105.405640    -1.213498    -14.168572    -176.152451    -0.656566    -5.628983    -1.572625    2.314218    8.999884    -1.722529    3.685368    -3.399074    -0.179500    -9.434453    -25.528353    -4.227338    13.358622    2.388502    -20.150530    -28.478937    13.437840    -46.870056    21.301231    -8.483412    -23.661526    40.935642    -3.811114    0.494335    -9.989047    4.622144    13.037880    17.597324    12.651079    48.650745    -27.578991    -9.549097    42.355957    -25.962358    0.491698    3.657000    4.579849    -31.634375    -1.837191    0.593816    31.883593    6.729324    -10.489275    -10.092113    -15.968452    -0.259118    -2.171199    0.288369    -5.438477    -28.300875    1.318054    1.473049    30.295883    5.311924    -0.015764    -11.516551    -14.513626    -1.719730    -1.344260    1.863470    
-3.068237    80.966255    105.276024    -1.428421    -14.289406    -176.259216    -0.494097    -5.692313    -1.546212    2.275861    8.738021    -1.695607    3.735392    -3.013205    0.035166    -10.189394    -25.588306    -4.277412    13.407427    2.821221    -19.207857    -28.932356    14.784791    -45.117367    21.989016    -8.516326    -25.108051    42.080452    -3.519934    0.169805    -10.170149    4.769502    12.410709    17.469145    14.259892    46.751987    -28.757963    -10.239184    44.902439    -26.104254    1.113805    3.347632    4.501711    -31.329401    -1.864591    0.512269    31.326227    6.890440    -10.503796    -9.873814    -15.993747    -0.299717    -2.224932    0.333585    -5.513085    -28.130064    1.435216    1.463172    29.918877    5.284361    -0.087314    -11.434711    -14.530977    -1.720939    -1.306714    1.864682    
